<svg version="1.1" id="Layer_1" xmlns:x="ns_extend;" xmlns:i="ns_ai;" xmlns:graph="ns_graphs;" xmlns="http://www.w3.org/2000/svg" xmlns:xlink="http://www.w3.org/1999/xlink" x="0px" y="0px" viewBox="0 0 271.3 77" style="enable-background:new 0 0 271.3 77;" xml:space="preserve">
 <style type="text/css">
  .st0{fill:#FFFFFF;}
 </style>
 <metadata>
  <sfw xmlns="ns_sfw;">
   <slices>
   </slices>
   <sliceSourceBounds bottomLeftOrigin="true" height="77" width="271.3" x="-37" y="-117.4">
   </sliceSourceBounds>
  </sfw>
 </metadata>
 <g>
  <rect x="28" y="35.5" class="st0" width="21.5" height="5.4">
  </rect>
  <path class="st0" d="M38.5,0C17.2,0,0,17.2,0,38.5C0,59.8,17.2,77,38.5,77S77,59.8,77,38.5C77,17.2,59.8,0,38.5,0z M54.2,55.2h-4.9
		V44.8H27.7v10.4h-4.9V21.4h4.9v10.1h21.5V21.4h4.9V55.2z">
  </path>
  <g>
   <polygon class="st0" points="133.7,35.1 114.3,35.1 114.3,21.1 109.5,21.1 109.5,53.7 114.3,53.7 114.3,39.5 133.7,39.5 
			133.7,53.7 138.5,53.7 138.5,21.1 133.7,21.1 		">
   </polygon>
   <path class="st0" d="M155.2,34.3c3.3,0,5.5,1.7,6.6,4.9h-13.3C149.4,36.1,151.8,34.3,155.2,34.3 M155.2,30.4
			c-6.6,0-11.6,5.1-11.6,11.9c0,6.8,5.2,11.9,12,11.9c7.9,0,10.6-5.3,10.9-7.1l0-0.2h-4.4l-0.1,0.1c-0.1,0.1-1.6,3-6.5,3
			c-4.1,0-7.1-2.9-7.4-7.1h18.7v-0.2C166.8,35.5,162,30.4,155.2,30.4">
   </path>
   <path class="st0" d="M182.8,50.1c-4.4,0-7.4-3.2-7.4-7.8c0-4.6,3-7.8,7.4-7.8c4.3,0,7.3,3.2,7.3,7.8
			C190.2,46.9,187.2,50.1,182.8,50.1 M190.1,34.2c-1.1-1.6-3.7-3.8-8-3.8c-6.6,0-11.3,4.9-11.3,11.9s4.6,11.9,11.3,11.9
			c4.7,0,7.1-2.7,8-3.9v3.4h4.5V19.9h-4.5V34.2z">
   </path>
   <path class="st0" d="M211.3,34.3c3.3,0,5.5,1.7,6.6,4.9h-13.3C205.5,36.1,207.9,34.3,211.3,34.3 M211.3,30.4
			c-6.6,0-11.6,5.1-11.6,11.9c0,6.8,5.2,11.9,12,11.9c7.9,0,10.6-5.3,10.9-7.1l0-0.2h-4.4l-0.1,0.1c-0.1,0.1-1.6,3-6.5,3
			c-4.1,0-7.1-2.9-7.4-7.1h18.7v-0.2C222.9,35.5,218.1,30.4,211.3,30.4">
   </path>
   <path class="st0" d="M232.3,34.4v-3.5h-4.5v22.8h4.5V40.9c0-4.1,2.1-5.6,7.5-5.6h5.9v-4.5h-5.8C235.2,30.7,233.1,32.9,232.3,34.4">
   </path>
   <path class="st0" d="M266.9,42.3c0,4.5-3,7.8-7.1,7.8c-4.3,0-7.3-3.2-7.3-7.8c0-4.6,3-7.8,7.3-7.8
			C263.9,34.6,266.9,37.8,266.9,42.3 M266.8,30.9v3.2c-0.8-1.2-3.1-3.8-7.8-3.8c-5.5,0-11.1,4.1-11.1,11.9c0,7,4.6,11.9,11.1,11.9
			c4.4,0,6.7-2.4,7.8-3.9v3.4h4.5V30.9H266.8z">
   </path>
  </g>
 </g>
</svg>